<?xml version="1.0" standalone="no"?>
<!DOCTYPE svg PUBLIC "-//W3C//DTD SVG 20010904//EN"
 "http://www.w3.org/TR/2001/REC-SVG-20010904/DTD/svg10.dtd">
<svg version="1.0" xmlns="http://www.w3.org/2000/svg"
 width="55.000000pt" height="60.000000pt" viewBox="0 0 55.000000 60.000000"
 preserveAspectRatio="xMidYMid meet">

<g transform="translate(0.000000,60.000000) scale(0.100000,-0.100000)"
fill="#000000" stroke="none">
<path d="M132 533 l-132 -67 2 -168 3 -168 135 -66 135 -65 138 66 137 67 0
167 0 166 -135 68 c-74 37 -139 67 -143 66 -4 0 -67 -30 -140 -66z m358 -74
c0 -3 -17 -14 -38 -23 l-39 -18 -106 54 c-59 29 -107 55 -107 58 0 3 17 12 38
20 37 16 37 16 144 -35 59 -27 108 -53 108 -56z m-220 -4 l111 -54 -52 -27
-53 -26 -108 53 c-59 29 -108 56 -108 60 0 5 26 18 97 48 1 1 52 -24 113 -54z
m-120 -80 l110 -55 0 -139 0 -140 -113 53 -112 53 -3 142 c-1 77 0 141 3 141
3 0 55 -25 115 -55z m368 -86 l-3 -142 -112 -53 -113 -53 0 140 0 139 50 25
c27 14 52 25 55 25 3 0 5 -18 5 -40 0 -29 4 -40 15 -40 11 0 15 12 15 50 0 47
2 50 38 69 20 11 40 20 45 21 4 0 6 -64 5 -141z"/>
</g>
</svg>
