<?xml version="1.0" standalone="no"?>
<!DOCTYPE svg PUBLIC "-//W3C//DTD SVG 20010904//EN"
 "http://www.w3.org/TR/2001/REC-SVG-20010904/DTD/svg10.dtd">
<svg version="1.0" xmlns="http://www.w3.org/2000/svg"
 width="60.000000pt" height="54.000000pt" viewBox="0 0 60.000000 54.000000"
 preserveAspectRatio="xMidYMid meet">

<g transform="translate(0.000000,54.000000) scale(0.100000,-0.100000)"
fill="#000000" stroke="none">
<path d="M106 529 c-84 -12 -106 -29 -106 -83 0 -42 21 -76 48 -76 7 0 12 -15
12 -37 0 -32 -5 -41 -30 -55 -26 -15 -30 -23 -30 -61 0 -27 6 -49 15 -57 9 -7
15 -29 15 -55 0 -78 57 -99 270 -99 148 0 219 11 252 41 23 20 24 95 3 113
-19 16 -21 90 -2 90 26 0 47 36 47 79 0 36 -4 44 -30 59 -26 15 -30 23 -30 59
0 33 -5 46 -23 58 -48 31 -272 44 -411 24z m377 -30 c44 -15 46 -23 10 -37
-108 -43 -378 -40 -457 5 -18 10 -18 11 4 23 13 7 46 16 74 21 70 11 323 3
369 -12z m-433 -85 c0 -17 -4 -22 -15 -18 -8 4 -15 17 -15 30 0 17 4 22 15 18
8 -4 15 -17 15 -30z m458 -15 c-9 -6 -14 -2 -16 13 -2 11 2 25 10 29 9 6 14 2
16 -13 2 -11 -2 -25 -10 -29z m-408 6 c0 -16 -6 -25 -15 -25 -9 0 -15 9 -15
25 0 16 6 25 15 25 9 0 15 -9 15 -25z m370 0 c0 -16 -6 -25 -15 -25 -9 0 -15
9 -15 25 0 16 6 25 15 25 9 0 15 -9 15 -25z m-320 -10 c0 -16 -6 -25 -15 -25
-9 0 -15 9 -15 25 0 16 6 25 15 25 9 0 15 -9 15 -25z m270 0 c0 -16 -6 -25
-15 -25 -9 0 -15 9 -15 25 0 16 6 25 15 25 9 0 15 -9 15 -25z m-220 -10 c0
-16 -6 -25 -15 -25 -9 0 -15 9 -15 25 0 16 6 25 15 25 9 0 15 -9 15 -25z m60
0 c0 -18 -5 -25 -20 -25 -15 0 -20 7 -20 25 0 18 5 25 20 25 15 0 20 -7 20
-25z m60 0 c0 -18 -5 -25 -20 -25 -15 0 -20 7 -20 25 0 18 5 25 20 25 15 0 20
-7 20 -25z m50 0 c0 -16 -6 -25 -15 -25 -9 0 -15 9 -15 25 0 16 6 25 15 25 9
0 15 -9 15 -25z m194 -18 c17 -13 17 -14 -10 -25 -111 -43 -383 -40 -459 6
-18 11 -16 11 10 5 55 -14 316 -7 365 10 58 19 72 20 94 4z m-454 -73 c0 -17
-4 -22 -15 -18 -8 4 -15 17 -15 30 0 17 4 22 15 18 8 -4 15 -17 15 -30z m458
-15 c-9 -6 -14 -2 -16 13 -2 11 2 25 10 29 9 6 14 2 16 -13 2 -11 -2 -25 -10
-29z m-408 6 c0 -16 -6 -25 -15 -25 -9 0 -15 9 -15 25 0 16 6 25 15 25 9 0 15
-9 15 -25z m370 0 c0 -16 -6 -25 -15 -25 -9 0 -15 9 -15 25 0 16 6 25 15 25 9
0 15 -9 15 -25z m-320 -10 c0 -16 -6 -25 -15 -25 -9 0 -15 9 -15 25 0 16 6 25
15 25 9 0 15 -9 15 -25z m270 0 c0 -16 -6 -25 -15 -25 -9 0 -15 9 -15 25 0 16
6 25 15 25 9 0 15 -9 15 -25z m-220 -10 c0 -16 -6 -25 -15 -25 -9 0 -15 9 -15
25 0 16 6 25 15 25 9 0 15 -9 15 -25z m60 0 c0 -18 -5 -25 -20 -25 -15 0 -20
7 -20 25 0 18 5 25 20 25 15 0 20 -7 20 -25z m60 0 c0 -18 -5 -25 -20 -25 -15
0 -20 7 -20 25 0 18 5 25 20 25 15 0 20 -7 20 -25z m50 0 c0 -16 -6 -25 -15
-25 -9 0 -15 9 -15 25 0 16 6 25 15 25 9 0 15 -9 15 -25z m-334 -10 c48 -23
172 -38 284 -33 l105 5 -65 -13 c-116 -23 -291 -14 -374 18 -27 11 -27 12 -10
25 22 16 24 16 60 -2z m-46 -71 c0 -17 -4 -22 -15 -18 -8 4 -15 17 -15 30 0
17 4 22 15 18 8 -4 15 -17 15 -30z m458 -15 c-9 -6 -14 -2 -16 13 -2 11 2 25
10 29 9 6 14 2 16 -13 2 -11 -2 -25 -10 -29z m-408 6 c0 -16 -6 -25 -15 -25
-9 0 -15 9 -15 25 0 16 6 25 15 25 9 0 15 -9 15 -25z m370 0 c0 -16 -6 -25
-15 -25 -9 0 -15 9 -15 25 0 16 6 25 15 25 9 0 15 -9 15 -25z m-320 -10 c0
-16 -6 -25 -15 -25 -9 0 -15 9 -15 25 0 16 6 25 15 25 9 0 15 -9 15 -25z m270
0 c0 -16 -6 -25 -15 -25 -9 0 -15 9 -15 25 0 16 6 25 15 25 9 0 15 -9 15 -25z
m-220 -10 c0 -16 -6 -25 -15 -25 -9 0 -15 9 -15 25 0 16 6 25 15 25 9 0 15 -9
15 -25z m60 0 c0 -18 -5 -25 -20 -25 -15 0 -20 7 -20 25 0 18 5 25 20 25 15 0
20 -7 20 -25z m60 0 c0 -18 -5 -25 -20 -25 -15 0 -20 7 -20 25 0 18 5 25 20
25 15 0 20 -7 20 -25z m50 0 c0 -16 -6 -25 -15 -25 -9 0 -15 9 -15 25 0 16 6
25 15 25 9 0 15 -9 15 -25z m174 -14 c14 -22 -128 -51 -248 -51 -80 1 -210 20
-223 34 -4 4 13 3 37 -1 76 -14 310 -7 360 10 55 18 67 20 74 8z m-464 -67 c0
-17 -4 -22 -15 -18 -8 4 -15 17 -15 30 0 17 4 22 15 18 8 -4 15 -17 15 -30z
m458 -15 c-9 -6 -14 -2 -16 13 -2 11 2 25 10 29 9 6 14 2 16 -13 2 -11 -2 -25
-10 -29z m-408 6 c0 -16 -6 -25 -15 -25 -9 0 -15 9 -15 25 0 16 6 25 15 25 9
0 15 -9 15 -25z m370 0 c0 -16 -6 -25 -15 -25 -9 0 -15 9 -15 25 0 16 6 25 15
25 9 0 15 -9 15 -25z m-320 -10 c0 -16 -6 -25 -15 -25 -9 0 -15 9 -15 25 0 16
6 25 15 25 9 0 15 -9 15 -25z m270 0 c0 -16 -6 -25 -15 -25 -9 0 -15 9 -15 25
0 16 6 25 15 25 9 0 15 -9 15 -25z m-220 -10 c0 -16 -6 -25 -15 -25 -9 0 -15
9 -15 25 0 16 6 25 15 25 9 0 15 -9 15 -25z m60 0 c0 -18 -5 -25 -20 -25 -15
0 -20 7 -20 25 0 18 5 25 20 25 15 0 20 -7 20 -25z m60 0 c0 -18 -5 -25 -20
-25 -15 0 -20 7 -20 25 0 18 5 25 20 25 15 0 20 -7 20 -25z m50 0 c0 -16 -6
-25 -15 -25 -9 0 -15 9 -15 25 0 16 6 25 15 25 9 0 15 -9 15 -25z"/>
</g>
</svg>
