<?xml version="1.0" standalone="no"?>
<!DOCTYPE svg PUBLIC "-//W3C//DTD SVG 20010904//EN"
 "http://www.w3.org/TR/2001/REC-SVG-20010904/DTD/svg10.dtd">
<svg version="1.0" xmlns="http://www.w3.org/2000/svg"
 width="55.000000pt" height="34.000000pt" viewBox="0 0 55.000000 34.000000"
 preserveAspectRatio="xMidYMid meet">

<g transform="translate(0.000000,34.000000) scale(0.100000,-0.100000)"
fill="#000000" stroke="none">
<path d="M196 308 c-7 -18 -16 -41 -19 -50 -4 -10 -22 -20 -44 -23 -84 -15
-98 -21 -101 -43 -2 -12 -10 -22 -18 -22 -9 0 -14 -11 -14 -35 0 -19 5 -35 10
-35 6 0 10 -7 10 -15 0 -9 9 -15 25 -15 14 0 25 -5 25 -10 0 -6 11 -22 25 -35
40 -41 96 -30 124 22 9 18 21 23 49 23 31 0 40 -5 54 -30 30 -53 106 -53 133
0 9 18 23 30 35 30 14 0 20 7 20 21 0 12 8 23 20 26 18 5 20 14 20 73 0 60 -3
69 -20 75 -12 4 -20 15 -20 29 0 12 -5 27 -12 34 -15 15 -228 17 -228 2 0 -6
43 -10 109 -10 87 0 110 -3 115 -15 3 -8 2 -60 -1 -115 -6 -100 -18 -124 -38
-78 -6 12 -22 29 -37 37 -24 14 -30 14 -61 -1 -20 -9 -38 -26 -42 -37 -9 -29
-90 -31 -98 -2 -14 57 -105 63 -136 10 -9 -16 -23 -29 -31 -28 -10 0 -11 2 -2
6 14 6 17 70 2 75 -25 8 14 31 71 42 63 11 64 11 80 56 9 25 24 46 33 48 23 5
20 22 -5 22 -13 0 -24 -11 -33 -32z m334 -119 c0 -37 -4 -58 -10 -54 -13 8
-13 115 0 115 6 0 10 -27 10 -61z m-490 -59 c0 -11 -4 -20 -10 -20 -5 0 -10 9
-10 20 0 11 5 20 10 20 6 0 10 -9 10 -20z m150 -10 c24 -24 25 -48 4 -78 -31
-44 -104 -20 -104 35 0 57 61 82 100 43z m240 0 c55 -55 -24 -135 -82 -83 -25
23 -23 68 4 87 30 21 54 20 78 -4z"/>
<path d="M121 96 c-17 -20 -2 -46 25 -46 29 0 41 24 24 45 -16 19 -34 19 -49
1z m37 -17 c-2 -6 -8 -10 -13 -10 -5 0 -11 4 -13 10 -2 6 4 11 13 11 9 0 15
-5 13 -11z"/>
<path d="M364 95 c-9 -23 3 -45 25 -45 25 0 34 14 26 40 -7 23 -43 27 -51 5z
m36 -13 c0 -13 -12 -22 -22 -16 -10 6 -1 24 13 24 5 0 9 -4 9 -8z"/>
<path d="M227 293 c-3 -5 -8 -23 -12 -40 l-7 -33 66 0 66 0 0 40 0 40 -54 0
c-30 0 -57 -3 -59 -7z m93 -33 c0 -17 -7 -20 -45 -20 -48 0 -48 0 -39 24 4 11
19 16 45 16 32 0 39 -3 39 -20z"/>
<path d="M360 260 l0 -40 60 0 60 0 0 40 c0 38 -2 40 -31 40 -17 0 -28 -4 -24
-10 3 -5 13 -10 21 -10 8 0 14 -9 14 -20 0 -17 -7 -20 -40 -20 -32 0 -40 4
-40 18 0 10 5 23 12 30 9 9 7 12 -10 12 -19 0 -22 -5 -22 -40z"/>
<path d="M290 190 c0 -5 11 -10 25 -10 14 0 25 5 25 10 0 6 -11 10 -25 10 -14
0 -25 -4 -25 -10z"/>
<path d="M430 190 c0 -5 9 -10 20 -10 11 0 20 5 20 10 0 6 -9 10 -20 10 -11 0
-20 -4 -20 -10z"/>
</g>
</svg>
