<?xml version="1.0" standalone="no"?>
<!DOCTYPE svg PUBLIC "-//W3C//DTD SVG 20010904//EN"
 "http://www.w3.org/TR/2001/REC-SVG-20010904/DTD/svg10.dtd">
<svg version="1.0" xmlns="http://www.w3.org/2000/svg"
 width="45.000000pt" height="45.000000pt" viewBox="0 0 45.000000 45.000000"
 preserveAspectRatio="xMidYMid meet">

<g transform="translate(0.000000,45.000000) scale(0.100000,-0.100000)"
fill="#000000" stroke="none">
<path d="M243 431 c-17 -16 -30 -18 -82 -14 -50 5 -61 3 -61 -9 0 -8 11 -20
25 -26 38 -18 43 -14 15 9 l-25 20 40 -6 c22 -4 41 -8 43 -9 1 -2 -43 -48 -98
-102 -55 -55 -100 -106 -100 -115 0 -8 38 -52 84 -98 64 -64 88 -82 103 -77
10 3 74 62 141 129 l122 124 0 84 c0 53 -5 90 -12 97 -7 7 -43 12 -93 12 -66
0 -85 -4 -102 -19z m188 -11 c0 -5 0 -37 0 -70 0 -33 0 -67 0 -75 -1 -20 -231
-255 -250 -255 -17 0 -161 138 -161 155 0 6 47 57 104 114 l104 103 36 -12
c27 -9 36 -17 36 -34 0 -28 18 -46 45 -46 44 0 63 60 26 80 -31 16 -37 12 -13
-10 26 -25 26 -24 7 -44 -19 -19 -45 -10 -45 16 0 10 5 16 10 13 6 -4 8 -11 5
-16 -4 -5 1 -9 9 -9 44 0 -18 53 -77 66 -23 5 -26 8 -16 20 14 17 179 20 180
4z"/>
<path d="M180 181 c0 -34 4 -61 10 -61 6 0 10 24 10 54 0 30 -4 58 -10 61 -6
4 -10 -17 -10 -54z"/>
<path d="M230 210 c0 -5 5 -10 10 -10 6 0 10 5 10 10 0 6 -4 10 -10 10 -5 0
-10 -4 -10 -10z"/>
<path d="M120 165 c0 -8 7 -15 15 -15 8 0 15 7 15 15 0 8 -7 15 -15 15 -8 0
-15 -7 -15 -15z"/>
<path d="M373 158 c-5 -7 -27 -42 -48 -76 -32 -55 -41 -63 -62 -59 -15 3 -22
0 -20 -7 5 -16 36 -20 52 -6 18 15 98 150 92 156 -2 2 -9 -1 -14 -8z"/>
</g>
</svg>
