<?xml version="1.0" standalone="no"?>
<!DOCTYPE svg PUBLIC "-//W3C//DTD SVG 20010904//EN"
 "http://www.w3.org/TR/2001/REC-SVG-20010904/DTD/svg10.dtd">
<svg version="1.0" xmlns="http://www.w3.org/2000/svg"
 width="39.000000pt" height="57.000000pt" viewBox="0 0 39.000000 57.000000"
 preserveAspectRatio="xMidYMid meet">

<g transform="translate(0.000000,57.000000) scale(0.100000,-0.100000)"
fill="#000000" stroke="none">
<path d="M193 535 c0 -22 2 -30 4 -17 2 12 2 30 0 40 -3 9 -5 -1 -4 -23z"/>
<path d="M250 505 c0 -19 5 -35 10 -35 6 0 10 16 10 35 0 19 -4 35 -10 35 -5
0 -10 -16 -10 -35z"/>
<path d="M120 495 c0 -14 5 -25 10 -25 6 0 10 11 10 25 0 14 -4 25 -10 25 -5
0 -10 -11 -10 -25z"/>
<path d="M177 439 c-26 -15 -21 -48 8 -55 14 -3 25 -11 25 -16 0 -6 -11 -7
-27 -3 -27 6 -27 6 -9 -14 15 -16 21 -18 37 -8 26 16 20 51 -8 55 -13 2 -23 8
-23 14 0 6 10 8 25 4 29 -7 34 9 7 23 -11 6 -24 6 -35 0z"/>
<path d="M12 348 c-8 -8 -12 -59 -12 -164 0 -125 3 -155 16 -168 23 -24 335
-24 358 0 13 13 16 43 16 168 0 105 -4 156 -12 164 -7 7 -36 11 -68 10 -36 -1
-43 -2 -20 -5 71 -7 80 -12 80 -41 l0 -27 -172 5 c-169 5 -173 5 -176 27 -3
24 8 29 78 36 23 3 16 4 -20 5 -32 1 -61 -3 -68 -10z m356 -115 l3 -33 -70 0
c-79 0 -101 -13 -101 -60 0 -47 22 -60 101 -60 l70 0 -3 -28 -3 -27 -170 0
-170 0 -3 125 -3 125 173 -5 173 -5 3 -32z m2 -93 l0 -50 -60 0 c-47 0 -64 4
-80 20 -11 11 -20 25 -20 30 0 6 9 19 20 30 16 16 33 20 80 20 l60 0 0 -50z"/>
<path d="M240 154 c-11 -12 -10 -18 3 -32 16 -15 18 -15 34 0 13 14 14 20 3
32 -16 20 -24 20 -40 0z m30 -14 c0 -5 -4 -10 -10 -10 -5 0 -10 5 -10 10 0 6
5 10 10 10 6 0 10 -4 10 -10z"/>
<path d="M50 319 c0 -5 65 -9 145 -9 80 0 145 4 145 8 0 5 -65 9 -145 9 -80 0
-145 -3 -145 -8z"/>
</g>
</svg>
