<svg width="0" height="0" class="hidden">
  <symbol version="1.0" xmlns="http://www.w3.org/2000/svg" preserveAspectRatio="xMidYMid meet" viewBox="0 0 60.000000 54.000000" id="adv3">
    <g transform="translate(0.000000,54.000000) scale(0.100000,-0.100000)" fill="#000000" stroke="none">
      <path d="M106 529 c-84 -12 -106 -29 -106 -83 0 -42 21 -76 48 -76 7 0 12 -15
12 -37 0 -32 -5 -41 -30 -55 -26 -15 -30 -23 -30 -61 0 -27 6 -49 15 -57 9 -7
15 -29 15 -55 0 -78 57 -99 270 -99 148 0 219 11 252 41 23 20 24 95 3 113
-19 16 -21 90 -2 90 26 0 47 36 47 79 0 36 -4 44 -30 59 -26 15 -30 23 -30 59
0 33 -5 46 -23 58 -48 31 -272 44 -411 24z m377 -30 c44 -15 46 -23 10 -37
-108 -43 -378 -40 -457 5 -18 10 -18 11 4 23 13 7 46 16 74 21 70 11 323 3
369 -12z m-433 -85 c0 -17 -4 -22 -15 -18 -8 4 -15 17 -15 30 0 17 4 22 15 18
8 -4 15 -17 15 -30z m458 -15 c-9 -6 -14 -2 -16 13 -2 11 2 25 10 29 9 6 14 2
16 -13 2 -11 -2 -25 -10 -29z m-408 6 c0 -16 -6 -25 -15 -25 -9 0 -15 9 -15
25 0 16 6 25 15 25 9 0 15 -9 15 -25z m370 0 c0 -16 -6 -25 -15 -25 -9 0 -15
9 -15 25 0 16 6 25 15 25 9 0 15 -9 15 -25z m-320 -10 c0 -16 -6 -25 -15 -25
-9 0 -15 9 -15 25 0 16 6 25 15 25 9 0 15 -9 15 -25z m270 0 c0 -16 -6 -25
-15 -25 -9 0 -15 9 -15 25 0 16 6 25 15 25 9 0 15 -9 15 -25z m-220 -10 c0
-16 -6 -25 -15 -25 -9 0 -15 9 -15 25 0 16 6 25 15 25 9 0 15 -9 15 -25z m60
0 c0 -18 -5 -25 -20 -25 -15 0 -20 7 -20 25 0 18 5 25 20 25 15 0 20 -7 20
-25z m60 0 c0 -18 -5 -25 -20 -25 -15 0 -20 7 -20 25 0 18 5 25 20 25 15 0 20
-7 20 -25z m50 0 c0 -16 -6 -25 -15 -25 -9 0 -15 9 -15 25 0 16 6 25 15 25 9
0 15 -9 15 -25z m194 -18 c17 -13 17 -14 -10 -25 -111 -43 -383 -40 -459 6
-18 11 -16 11 10 5 55 -14 316 -7 365 10 58 19 72 20 94 4z m-454 -73 c0 -17
-4 -22 -15 -18 -8 4 -15 17 -15 30 0 17 4 22 15 18 8 -4 15 -17 15 -30z m458
-15 c-9 -6 -14 -2 -16 13 -2 11 2 25 10 29 9 6 14 2 16 -13 2 -11 -2 -25 -10
-29z m-408 6 c0 -16 -6 -25 -15 -25 -9 0 -15 9 -15 25 0 16 6 25 15 25 9 0 15
-9 15 -25z m370 0 c0 -16 -6 -25 -15 -25 -9 0 -15 9 -15 25 0 16 6 25 15 25 9
0 15 -9 15 -25z m-320 -10 c0 -16 -6 -25 -15 -25 -9 0 -15 9 -15 25 0 16 6 25
15 25 9 0 15 -9 15 -25z m270 0 c0 -16 -6 -25 -15 -25 -9 0 -15 9 -15 25 0 16
6 25 15 25 9 0 15 -9 15 -25z m-220 -10 c0 -16 -6 -25 -15 -25 -9 0 -15 9 -15
25 0 16 6 25 15 25 9 0 15 -9 15 -25z m60 0 c0 -18 -5 -25 -20 -25 -15 0 -20
7 -20 25 0 18 5 25 20 25 15 0 20 -7 20 -25z m60 0 c0 -18 -5 -25 -20 -25 -15
0 -20 7 -20 25 0 18 5 25 20 25 15 0 20 -7 20 -25z m50 0 c0 -16 -6 -25 -15
-25 -9 0 -15 9 -15 25 0 16 6 25 15 25 9 0 15 -9 15 -25z m-334 -10 c48 -23
172 -38 284 -33 l105 5 -65 -13 c-116 -23 -291 -14 -374 18 -27 11 -27 12 -10
25 22 16 24 16 60 -2z m-46 -71 c0 -17 -4 -22 -15 -18 -8 4 -15 17 -15 30 0
17 4 22 15 18 8 -4 15 -17 15 -30z m458 -15 c-9 -6 -14 -2 -16 13 -2 11 2 25
10 29 9 6 14 2 16 -13 2 -11 -2 -25 -10 -29z m-408 6 c0 -16 -6 -25 -15 -25
-9 0 -15 9 -15 25 0 16 6 25 15 25 9 0 15 -9 15 -25z m370 0 c0 -16 -6 -25
-15 -25 -9 0 -15 9 -15 25 0 16 6 25 15 25 9 0 15 -9 15 -25z m-320 -10 c0
-16 -6 -25 -15 -25 -9 0 -15 9 -15 25 0 16 6 25 15 25 9 0 15 -9 15 -25z m270
0 c0 -16 -6 -25 -15 -25 -9 0 -15 9 -15 25 0 16 6 25 15 25 9 0 15 -9 15 -25z
m-220 -10 c0 -16 -6 -25 -15 -25 -9 0 -15 9 -15 25 0 16 6 25 15 25 9 0 15 -9
15 -25z m60 0 c0 -18 -5 -25 -20 -25 -15 0 -20 7 -20 25 0 18 5 25 20 25 15 0
20 -7 20 -25z m60 0 c0 -18 -5 -25 -20 -25 -15 0 -20 7 -20 25 0 18 5 25 20
25 15 0 20 -7 20 -25z m50 0 c0 -16 -6 -25 -15 -25 -9 0 -15 9 -15 25 0 16 6
25 15 25 9 0 15 -9 15 -25z m174 -14 c14 -22 -128 -51 -248 -51 -80 1 -210 20
-223 34 -4 4 13 3 37 -1 76 -14 310 -7 360 10 55 18 67 20 74 8z m-464 -67 c0
-17 -4 -22 -15 -18 -8 4 -15 17 -15 30 0 17 4 22 15 18 8 -4 15 -17 15 -30z
m458 -15 c-9 -6 -14 -2 -16 13 -2 11 2 25 10 29 9 6 14 2 16 -13 2 -11 -2 -25
-10 -29z m-408 6 c0 -16 -6 -25 -15 -25 -9 0 -15 9 -15 25 0 16 6 25 15 25 9
0 15 -9 15 -25z m370 0 c0 -16 -6 -25 -15 -25 -9 0 -15 9 -15 25 0 16 6 25 15
25 9 0 15 -9 15 -25z m-320 -10 c0 -16 -6 -25 -15 -25 -9 0 -15 9 -15 25 0 16
6 25 15 25 9 0 15 -9 15 -25z m270 0 c0 -16 -6 -25 -15 -25 -9 0 -15 9 -15 25
0 16 6 25 15 25 9 0 15 -9 15 -25z m-220 -10 c0 -16 -6 -25 -15 -25 -9 0 -15
9 -15 25 0 16 6 25 15 25 9 0 15 -9 15 -25z m60 0 c0 -18 -5 -25 -20 -25 -15
0 -20 7 -20 25 0 18 5 25 20 25 15 0 20 -7 20 -25z m60 0 c0 -18 -5 -25 -20
-25 -15 0 -20 7 -20 25 0 18 5 25 20 25 15 0 20 -7 20 -25z m50 0 c0 -16 -6
-25 -15 -25 -9 0 -15 9 -15 25 0 16 6 25 15 25 9 0 15 -9 15 -25z"></path>
    </g>
  </symbol>
  <symbol version="1.0" xmlns="http://www.w3.org/2000/svg" preserveAspectRatio="xMidYMid meet" viewBox="0 0 45.000000 45.000000" id="reason2">
    <g transform="translate(0.000000,45.000000) scale(0.100000,-0.100000)" fill="#000000" stroke="none">
      <path d="M243 431 c-17 -16 -30 -18 -82 -14 -50 5 -61 3 -61 -9 0 -8 11 -20
25 -26 38 -18 43 -14 15 9 l-25 20 40 -6 c22 -4 41 -8 43 -9 1 -2 -43 -48 -98
-102 -55 -55 -100 -106 -100 -115 0 -8 38 -52 84 -98 64 -64 88 -82 103 -77
10 3 74 62 141 129 l122 124 0 84 c0 53 -5 90 -12 97 -7 7 -43 12 -93 12 -66
0 -85 -4 -102 -19z m188 -11 c0 -5 0 -37 0 -70 0 -33 0 -67 0 -75 -1 -20 -231
-255 -250 -255 -17 0 -161 138 -161 155 0 6 47 57 104 114 l104 103 36 -12
c27 -9 36 -17 36 -34 0 -28 18 -46 45 -46 44 0 63 60 26 80 -31 16 -37 12 -13
-10 26 -25 26 -24 7 -44 -19 -19 -45 -10 -45 16 0 10 5 16 10 13 6 -4 8 -11 5
-16 -4 -5 1 -9 9 -9 44 0 -18 53 -77 66 -23 5 -26 8 -16 20 14 17 179 20 180
4z"></path>
      <path d="M180 181 c0 -34 4 -61 10 -61 6 0 10 24 10 54 0 30 -4 58 -10 61 -6
4 -10 -17 -10 -54z"></path>
      <path d="M230 210 c0 -5 5 -10 10 -10 6 0 10 5 10 10 0 6 -4 10 -10 10 -5 0
-10 -4 -10 -10z"></path>
      <path d="M120 165 c0 -8 7 -15 15 -15 8 0 15 7 15 15 0 8 -7 15 -15 15 -8 0
-15 -7 -15 -15z"></path>
      <path d="M373 158 c-5 -7 -27 -42 -48 -76 -32 -55 -41 -63 -62 -59 -15 3 -22
0 -20 -7 5 -16 36 -20 52 -6 18 15 98 150 92 156 -2 2 -9 -1 -14 -8z"></path>
    </g>
  </symbol>
  <symbol version="1.0" xmlns="http://www.w3.org/2000/svg" preserveAspectRatio="xMidYMid meet" viewBox="0 0 39.000000 57.000000" id="reason3">
    <g transform="translate(0.000000,57.000000) scale(0.100000,-0.100000)" fill="#000000" stroke="none">
      <path d="M193 535 c0 -22 2 -30 4 -17 2 12 2 30 0 40 -3 9 -5 -1 -4 -23z"></path>
      <path d="M250 505 c0 -19 5 -35 10 -35 6 0 10 16 10 35 0 19 -4 35 -10 35 -5
0 -10 -16 -10 -35z"></path>
      <path d="M120 495 c0 -14 5 -25 10 -25 6 0 10 11 10 25 0 14 -4 25 -10 25 -5
0 -10 -11 -10 -25z"></path>
      <path d="M177 439 c-26 -15 -21 -48 8 -55 14 -3 25 -11 25 -16 0 -6 -11 -7
-27 -3 -27 6 -27 6 -9 -14 15 -16 21 -18 37 -8 26 16 20 51 -8 55 -13 2 -23 8
-23 14 0 6 10 8 25 4 29 -7 34 9 7 23 -11 6 -24 6 -35 0z"></path>
      <path d="M12 348 c-8 -8 -12 -59 -12 -164 0 -125 3 -155 16 -168 23 -24 335
-24 358 0 13 13 16 43 16 168 0 105 -4 156 -12 164 -7 7 -36 11 -68 10 -36 -1
-43 -2 -20 -5 71 -7 80 -12 80 -41 l0 -27 -172 5 c-169 5 -173 5 -176 27 -3
24 8 29 78 36 23 3 16 4 -20 5 -32 1 -61 -3 -68 -10z m356 -115 l3 -33 -70 0
c-79 0 -101 -13 -101 -60 0 -47 22 -60 101 -60 l70 0 -3 -28 -3 -27 -170 0
-170 0 -3 125 -3 125 173 -5 173 -5 3 -32z m2 -93 l0 -50 -60 0 c-47 0 -64 4
-80 20 -11 11 -20 25 -20 30 0 6 9 19 20 30 16 16 33 20 80 20 l60 0 0 -50z"></path>
      <path d="M240 154 c-11 -12 -10 -18 3 -32 16 -15 18 -15 34 0 13 14 14 20 3
32 -16 20 -24 20 -40 0z m30 -14 c0 -5 -4 -10 -10 -10 -5 0 -10 5 -10 10 0 6
5 10 10 10 6 0 10 -4 10 -10z"></path>
      <path d="M50 319 c0 -5 65 -9 145 -9 80 0 145 4 145 8 0 5 -65 9 -145 9 -80 0
-145 -3 -145 -8z"></path>
    </g>
  </symbol>
  <symbol version="1.0" xmlns="http://www.w3.org/2000/svg" preserveAspectRatio="xMidYMid meet" viewBox="0 0 55.000000 34.000000" id="reason1">
    <g transform="translate(0.000000,34.000000) scale(0.100000,-0.100000)" fill="#000000" stroke="none">
      <path d="M196 308 c-7 -18 -16 -41 -19 -50 -4 -10 -22 -20 -44 -23 -84 -15
-98 -21 -101 -43 -2 -12 -10 -22 -18 -22 -9 0 -14 -11 -14 -35 0 -19 5 -35 10
-35 6 0 10 -7 10 -15 0 -9 9 -15 25 -15 14 0 25 -5 25 -10 0 -6 11 -22 25 -35
40 -41 96 -30 124 22 9 18 21 23 49 23 31 0 40 -5 54 -30 30 -53 106 -53 133
0 9 18 23 30 35 30 14 0 20 7 20 21 0 12 8 23 20 26 18 5 20 14 20 73 0 60 -3
69 -20 75 -12 4 -20 15 -20 29 0 12 -5 27 -12 34 -15 15 -228 17 -228 2 0 -6
43 -10 109 -10 87 0 110 -3 115 -15 3 -8 2 -60 -1 -115 -6 -100 -18 -124 -38
-78 -6 12 -22 29 -37 37 -24 14 -30 14 -61 -1 -20 -9 -38 -26 -42 -37 -9 -29
-90 -31 -98 -2 -14 57 -105 63 -136 10 -9 -16 -23 -29 -31 -28 -10 0 -11 2 -2
6 14 6 17 70 2 75 -25 8 14 31 71 42 63 11 64 11 80 56 9 25 24 46 33 48 23 5
20 22 -5 22 -13 0 -24 -11 -33 -32z m334 -119 c0 -37 -4 -58 -10 -54 -13 8
-13 115 0 115 6 0 10 -27 10 -61z m-490 -59 c0 -11 -4 -20 -10 -20 -5 0 -10 9
-10 20 0 11 5 20 10 20 6 0 10 -9 10 -20z m150 -10 c24 -24 25 -48 4 -78 -31
-44 -104 -20 -104 35 0 57 61 82 100 43z m240 0 c55 -55 -24 -135 -82 -83 -25
23 -23 68 4 87 30 21 54 20 78 -4z"></path>
      <path d="M121 96 c-17 -20 -2 -46 25 -46 29 0 41 24 24 45 -16 19 -34 19 -49
1z m37 -17 c-2 -6 -8 -10 -13 -10 -5 0 -11 4 -13 10 -2 6 4 11 13 11 9 0 15
-5 13 -11z"></path>
      <path d="M364 95 c-9 -23 3 -45 25 -45 25 0 34 14 26 40 -7 23 -43 27 -51 5z
m36 -13 c0 -13 -12 -22 -22 -16 -10 6 -1 24 13 24 5 0 9 -4 9 -8z"></path>
      <path d="M227 293 c-3 -5 -8 -23 -12 -40 l-7 -33 66 0 66 0 0 40 0 40 -54 0
c-30 0 -57 -3 -59 -7z m93 -33 c0 -17 -7 -20 -45 -20 -48 0 -48 0 -39 24 4 11
19 16 45 16 32 0 39 -3 39 -20z"></path>
      <path d="M360 260 l0 -40 60 0 60 0 0 40 c0 38 -2 40 -31 40 -17 0 -28 -4 -24
-10 3 -5 13 -10 21 -10 8 0 14 -9 14 -20 0 -17 -7 -20 -40 -20 -32 0 -40 4
-40 18 0 10 5 23 12 30 9 9 7 12 -10 12 -19 0 -22 -5 -22 -40z"></path>
      <path d="M290 190 c0 -5 11 -10 25 -10 14 0 25 5 25 10 0 6 -11 10 -25 10 -14
0 -25 -4 -25 -10z"></path>
      <path d="M430 190 c0 -5 9 -10 20 -10 11 0 20 5 20 10 0 6 -9 10 -20 10 -11 0
-20 -4 -20 -10z"></path>
    </g>
  </symbol>
  <symbol version="1.0" xmlns="http://www.w3.org/2000/svg" preserveAspectRatio="xMidYMid meet" viewBox="0 0 55.000000 60.000000" id="adv1">
    <g transform="translate(0.000000,60.000000) scale(0.100000,-0.100000)" fill="#000000" stroke="none">
      <path d="M132 533 l-132 -67 2 -168 3 -168 135 -66 135 -65 138 66 137 67 0
167 0 166 -135 68 c-74 37 -139 67 -143 66 -4 0 -67 -30 -140 -66z m358 -74
c0 -3 -17 -14 -38 -23 l-39 -18 -106 54 c-59 29 -107 55 -107 58 0 3 17 12 38
20 37 16 37 16 144 -35 59 -27 108 -53 108 -56z m-220 -4 l111 -54 -52 -27
-53 -26 -108 53 c-59 29 -108 56 -108 60 0 5 26 18 97 48 1 1 52 -24 113 -54z
m-120 -80 l110 -55 0 -139 0 -140 -113 53 -112 53 -3 142 c-1 77 0 141 3 141
3 0 55 -25 115 -55z m368 -86 l-3 -142 -112 -53 -113 -53 0 140 0 139 50 25
c27 14 52 25 55 25 3 0 5 -18 5 -40 0 -29 4 -40 15 -40 11 0 15 12 15 50 0 47
2 50 38 69 20 11 40 20 45 21 4 0 6 -64 5 -141z"></path>
    </g>
  </symbol>
  <symbol version="1.0" xmlns="http://www.w3.org/2000/svg" preserveAspectRatio="xMidYMid meet" viewBox="0 0 55.000000 60.000000" id="adv2">
    <g transform="translate(0.000000,60.000000) scale(0.100000,-0.100000)" fill="#000000" stroke="none">
      <path d="M228 574 c-26 -13 -87 -38 -135 -54 l-88 -29 1 -108 c1 -128 22 -196
84 -266 48 -55 126 -106 172 -114 71 -11 204 92 255 196 25 51 28 66 28 175
l0 118 -80 28 c-44 15 -103 39 -132 53 -29 15 -54 27 -55 27 -2 -1 -24 -12
-50 -26z m95 -26 c23 -11 77 -33 121 -48 l79 -27 -2 -97 c-2 -107 -15 -155
-60 -219 -33 -49 -75 -83 -139 -116 l-43 -22 -44 20 c-63 28 -140 104 -172
170 -25 50 -28 67 -28 160 l0 103 75 27 c41 15 93 37 115 49 50 26 47 26 98 0z"></path>
      <path d="M170 485 c0 -9 5 -15 11 -13 6 2 11 8 11 13 0 5 -5 11 -11 13 -6 2
-11 -4 -11 -13z"></path>
      <path d="M93 468 c-30 -10 -33 -15 -33 -50 0 -24 4 -37 10 -33 6 3 10 16 10
29 0 18 9 25 40 35 22 6 40 16 40 21 0 12 -25 11 -67 -2z"></path>
      <path d="M312 351 l-78 -68 -37 30 c-33 26 -41 28 -63 19 -40 -19 -31 -51 30
-104 30 -27 62 -48 70 -48 17 0 202 164 210 187 6 14 -27 53 -44 53 -5 0 -45
-31 -88 -69z m102 30 c7 -11 -163 -171 -181 -171 -18 0 -93 69 -93 86 0 23 24
16 55 -16 16 -17 33 -30 39 -30 5 0 42 31 82 70 71 69 87 79 98 61z"></path>
      <path d="M382 147 c-42 -43 -50 -57 -32 -57 16 0 90 71 90 86 0 23 -14 16 -58
-29z"></path>
      <path d="M300 80 c0 -5 7 -10 15 -10 8 0 15 5 15 10 0 6 -7 10 -15 10 -8 0
-15 -4 -15 -10z"></path>
    </g>
  </symbol>
  <symbol version="1.0" xmlns="http://www.w3.org/2000/svg" preserveAspectRatio="xMidYMid meet" viewBox="0 0 48.000000 48.000000" id="reason4">
    <g transform="translate(0.000000,48.000000) scale(0.100000,-0.100000)" fill="#000000" stroke="none">
      <path d="M230 470 c0 -5 17 -12 38 -16 113 -20 186 -105 186 -214 0 -121 -92
-213 -214 -213 -109 0 -194 72 -209 177 -6 43 -31 63 -31 25 0 -82 85 -193
166 -217 114 -34 237 17 290 120 22 42 29 124 14 177 -16 59 -87 135 -147 155
-52 18 -93 21 -93 6z"></path>
      <path d="M185 460 c4 -6 11 -8 16 -5 14 9 11 15 -7 15 -8 0 -12 -5 -9 -10z"></path>
      <path d="M140 450 c0 -5 5 -10 10 -10 6 0 10 5 10 10 0 6 -4 10 -10 10 -5 0
-10 -4 -10 -10z"></path>
      <path d="M100 430 c0 -5 7 -10 16 -10 8 0 12 5 9 10 -3 6 -10 10 -16 10 -5 0
-9 -4 -9 -10z"></path>
      <path d="M70 400 c0 -5 5 -10 10 -10 6 0 10 5 10 10 0 6 -4 10 -10 10 -5 0
-10 -4 -10 -10z"></path>
      <path d="M40 370 c0 -5 5 -10 10 -10 6 0 10 5 10 10 0 6 -4 10 -10 10 -5 0
-10 -4 -10 -10z"></path>
      <path d="M20 330 c0 -5 5 -10 10 -10 6 0 10 5 10 10 0 6 -4 10 -10 10 -5 0
-10 -4 -10 -10z"></path>
      <path d="M6 291 c-4 -5 -2 -12 3 -15 5 -4 12 -2 15 3 4 5 2 12 -3 15 -5 4 -12
2 -15 -3z"></path>
      <path d="M260 255 c-41 -42 -45 -44 -62 -28 -28 25 -35 5 -7 -22 l25 -25 53
54 c29 29 49 56 44 59 -5 4 -29 -14 -53 -38z"></path>
    </g>
  </symbol>
</svg>